# xmcd
#
# Track frame offsets: 
#        150
#        14919
#        29527
#        43192
#        58619
#        74295
#        85268
#        101800
#        126811
#        144103
#        160163
#        177445
#
# Disc length: 2658 seconds
#
# Revision: 0
# Processed by: cddbd v1.5.2PL0 Copyright (c) Steve Scherf et al.
# Submitted via: ExactAudioCopy v1.0b4
#
DISCID=a90a600c
DTITLE=The Wake Woods - Get Outta My Way
DYEAR=2015
DGENRE=Blues Rock
TTITLE0=Get Outta My Way
TTITLE1=Coffee, Whiskey, Cigarettes
TTITLE2=Can't You Feel It
TTITLE3=Oh La La
TTITLE4=Carolina
TTITLE5=Sooner or Later
TTITLE6=Go Ahead
TTITLE7=All the Plans We Had
TTITLE8=What You Gonna Leave It For
TTITLE9=Up and Gone Away
TTITLE10=Why Do You Love This Man
TTITLE11=Home
EXTD=
EXTT0=
EXTT1=
EXTT2=
EXTT3=
EXTT4=
EXTT5=
EXTT6=
EXTT7=
EXTT8=
EXTT9=
EXTT10=
EXTT11=
PLAYORDER=
